{
    "asset" : {
        "generator" : "Khronos glTF Blender I/O v3.2.40",
        "version" : "2.0"
    },
    "scene" : 0,
    "scenes" : [
        {
            "name" : "Scene",
            "nodes" : [
                0,
                1,
                2,
                3
            ]
        }
    ],
    "nodes" : [
        {
            "mesh" : 0,
            "name" : "Plane",
            "rotation" : [
                0.7071068286895752,
                0,
                0,
                0.7071068286895752
            ],
            "scale" : [
                1.70231294631958,
                1,
                1
            ],
            "translation" : [
                0,
                3.6939003467559814,
                0
            ]
        },
        {
            "name" : "Wind",
            "rotation" : [
                -0.03192230314016342,
                -0.1651148647069931,
                -0.5312607288360596,
                0.8303493857383728
            ],
            "translation" : [
                -2.47149658203125,
                2.791533946990967,
                0
            ]
        },
        {
            "mesh" : 1,
            "name" : "Cube",
            "scale" : [
                0.18288443982601166,
                0.8939962983131409,
                0.1592739075422287
            ],
            "translation" : [
                -1.7568219900131226,
                1.1752532720565796,
                0
            ]
        },
        {
            "mesh" : 2,
            "name" : "Cube.001",
            "scale" : [
                0.18288443982601166,
                0.8939962983131409,
                0.1592739075422287
            ],
            "translation" : [
                -1.7568219900131226,
                1.1752532720565796,
                0
            ]
        }
    ],
    "animations" : [
        {
            "channels" : [
                {
                    "sampler" : 0,
                    "target" : {
                        "node" : 0,
                        "path" : "translation"
                    }
                },
                {
                    "sampler" : 1,
                    "target" : {
                        "node" : 0,
                        "path" : "rotation"
                    }
                },
                {
                    "sampler" : 2,
                    "target" : {
                        "node" : 0,
                        "path" : "scale"
                    }
                }
            ],
            "name" : "PlaneAction.002",
            "samplers" : [
                {
                    "input" : 12,
                    "interpolation" : "LINEAR",
                    "output" : 13
                },
                {
                    "input" : 12,
                    "interpolation" : "LINEAR",
                    "output" : 14
                },
                {
                    "input" : 12,
                    "interpolation" : "LINEAR",
                    "output" : 15
                }
            ]
        }
    ],
    "materials" : [
        {
            "doubleSided" : true,
            "name" : "alien",
            "pbrMetallicRoughness" : {
                "baseColorTexture" : {
                    "index" : 0
                },
                "metallicFactor" : 0,
                "roughnessFactor" : 0.1090908944606781
            }
        },
        {
            "doubleSided" : true,
            "name" : "POLE",
            "pbrMetallicRoughness" : {
                "baseColorFactor" : [
                    0.8760188817977905,
                    1,
                    0.8779349327087402,
                    1
                ],
                "metallicFactor" : 0.6181818246841431,
                "roughnessFactor" : 0
            }
        }
    ],
    "meshes" : [
        {
            "name" : "Mesh",
            "primitives" : [
                {
                    "attributes" : {
                        "POSITION" : 0,
                        "NORMAL" : 1,
                        "TEXCOORD_0" : 2
                    },
                    "indices" : 3,
                    "material" : 0
                }
            ]
        },
        {
            "name" : "Cube.001",
            "primitives" : [
                {
                    "attributes" : {
                        "POSITION" : 4,
                        "NORMAL" : 5,
                        "TEXCOORD_0" : 6
                    },
                    "indices" : 7,
                    "material" : 1
                }
            ]
        },
        {
            "name" : "Cube.002",
            "primitives" : [
                {
                    "attributes" : {
                        "POSITION" : 8,
                        "NORMAL" : 9,
                        "TEXCOORD_0" : 10
                    },
                    "indices" : 11,
                    "material" : 1
                }
            ]
        }
    ],
    "textures" : [
        {
            "sampler" : 0,
            "source" : 0
        }
    ],
    "images" : [
        {
            "bufferView" : 4,
            "mimeType" : "image/png",
            "name" : "alien cat"
        }
    ],
    "accessors" : [
        {
            "bufferView" : 0,
            "componentType" : 5126,
            "count" : 9858,
            "max" : [
                1.0000001192092896,
                0,
                1.0000001192092896
            ],
            "min" : [
                -1.0000001192092896,
                0,
                -1.0000001192092896
            ],
            "type" : "VEC3"
        },
        {
            "bufferView" : 1,
            "componentType" : 5126,
            "count" : 9858,
            "type" : "VEC3"
        },
        {
            "bufferView" : 2,
            "componentType" : 5126,
            "count" : 9858,
            "type" : "VEC2"
        },
        {
            "bufferView" : 3,
            "componentType" : 5123,
            "count" : 42336,
            "type" : "SCALAR"
        },
        {
            "bufferView" : 5,
            "componentType" : 5126,
            "count" : 54,
            "max" : [
                0.7945240139961243,
                3.9828436374664307,
                1
            ],
            "min" : [
                -0.7945240139961243,
                -0.9999998807907104,
                -1
            ],
            "type" : "VEC3"
        },
        {
            "bufferView" : 6,
            "componentType" : 5126,
            "count" : 54,
            "type" : "VEC3"
        },
        {
            "bufferView" : 7,
            "componentType" : 5126,
            "count" : 54,
            "type" : "VEC2"
        },
        {
            "bufferView" : 8,
            "componentType" : 5123,
            "count" : 90,
            "type" : "SCALAR"
        },
        {
            "bufferView" : 9,
            "componentType" : 5126,
            "count" : 256,
            "max" : [
                1.205188274383545,
                4.137528419494629,
                1.662736177444458
            ],
            "min" : [
                -1.191676378250122,
                3.907496452331543,
                -1.6627370119094849
            ],
            "type" : "VEC3"
        },
        {
            "bufferView" : 10,
            "componentType" : 5126,
            "count" : 256,
            "type" : "VEC3"
        },
        {
            "bufferView" : 11,
            "componentType" : 5126,
            "count" : 256,
            "type" : "VEC2"
        },
        {
            "bufferView" : 12,
            "componentType" : 5123,
            "count" : 384,
            "type" : "SCALAR"
        },
        {
            "bufferView" : 13,
            "componentType" : 5126,
            "count" : 251,
            "max" : [
                10.416666666666666
            ],
            "min" : [
                0
            ],
            "type" : "SCALAR"
        },
        {
            "bufferView" : 14,
            "componentType" : 5126,
            "count" : 251,
            "type" : "VEC3"
        },
        {
            "bufferView" : 15,
            "componentType" : 5126,
            "count" : 251,
            "type" : "VEC4"
        },
        {
            "bufferView" : 16,
            "componentType" : 5126,
            "count" : 251,
            "type" : "VEC3"
        }
    ],
    "bufferViews" : [
        {
            "buffer" : 0,
            "byteLength" : 118296,
            "byteOffset" : 0
        },
        {
            "buffer" : 0,
            "byteLength" : 118296,
            "byteOffset" : 118296
        },
        {
            "buffer" : 0,
            "byteLength" : 78864,
            "byteOffset" : 236592
        },
        {
            "buffer" : 0,
            "byteLength" : 84672,
            "byteOffset" : 315456
        },
        {
            "buffer" : 0,
            "byteLength" : 417645,
            "byteOffset" : 400128
        },
        {
            "buffer" : 0,
            "byteLength" : 648,
            "byteOffset" : 817776
        },
        {
            "buffer" : 0,
            "byteLength" : 648,
            "byteOffset" : 818424
        },
        {
            "buffer" : 0,
            "byteLength" : 432,
            "byteOffset" : 819072
        },
        {
            "buffer" : 0,
            "byteLength" : 180,
            "byteOffset" : 819504
        },
        {
            "buffer" : 0,
            "byteLength" : 3072,
            "byteOffset" : 819684
        },
        {
            "buffer" : 0,
            "byteLength" : 3072,
            "byteOffset" : 822756
        },
        {
            "buffer" : 0,
            "byteLength" : 2048,
            "byteOffset" : 825828
        },
        {
            "buffer" : 0,
            "byteLength" : 768,
            "byteOffset" : 827876
        },
        {
            "buffer" : 0,
            "byteLength" : 1004,
            "byteOffset" : 828644
        },
        {
            "buffer" : 0,
            "byteLength" : 3012,
            "byteOffset" : 829648
        },
        {
            "buffer" : 0,
            "byteLength" : 4016,
            "byteOffset" : 832660
        },
        {
            "buffer" : 0,
            "byteLength" : 3012,
            "byteOffset" : 836676
        }
    ],
    "samplers" : [
        {
            "magFilter" : 9729,
            "minFilter" : 9987
        }
    ],
    "buffers" : [
        {
            "byteLength" : 839688,
            "uri" : "data:application/octet-stream;base64,"
        }
    ]
}
